<?xml version="1.0" encoding="UTF-8" standalone="no"?>
<!DOCTYPE svg PUBLIC "-//W3C//DTD SVG 1.1//EN" "http://www.w3.org/Graphics/SVG/1.1/DTD/svg11.dtd">
<svg width="370.00" height="320.00" viewBox="0.00 0.00 370.00 320.00" xmlns="http://www.w3.org/2000/svg" xmlns:xlink="http://www.w3.org/1999/xlink">
<g stroke-linecap="round" transform="translate(-4.00, -2.00)" id="icon-dev">
<path d="M159.60,97.52 C156.27,97.41 152.64,97.75 149.27,98.76 C146.07,99.75 140.94,102.23 137.73,104.24 C132.34,107.66 122.17,117.85 117.71,124.39 C112.74,131.74 106.29,144.27 104.46,151.11 C103.82,153.55 101.75,163.30 101.57,165.87 C101.37,169.00 102.66,183.81 104.35,189.86 C106.88,198.75 112.46,211.99 116.46,217.84 C121.20,224.69 130.60,234.93 137.22,239.54 C142.59,243.24 155.92,250.16 162.64,252.37 C168.73,254.34 182.61,257.11 188.34,257.39 C195.32,257.70 209.92,256.11 215.31,254.84 C221.69,253.29 236.36,247.75 243.42,243.36 C246.63,241.35 251.94,237.01 254.29,234.60 C258.32,230.42 267.27,217.59 270.17,211.13 C273.18,204.36 277.12,189.18 277.76,183.13 C278.36,177.18 277.95,162.31 276.45,155.36 C274.91,148.41 270.39,135.54 267.89,130.74 C266.88,128.82 262.78,122.16 261.42,120.38 C259.50,117.91 243.70,104.19 239.95,101.25 C236.81,98.82 231.13,95.18 228.37,93.98 C222.72,91.59 207.46,88.92 200.66,88.60 C194.09,88.32 184.11,89.14 176.70,90.71 C167.55,92.70 145.39,101.06 143.25,102.16 C142.17,102.71 141.66,103.05 141.73,103.09" fill="none" stroke="rgb(6, 240, 255)" stroke-width="20.00" stroke-opacity="0.78" stroke-linejoin="round"/>
<path d="M193.02,95.57 C193.02,95.57 192.88,95.07 192.88,95.07 C191.27,94.74 186.74,96.93 184.27,98.60 C180.28,101.33 163.76,116.48 161.04,119.24 C156.72,123.64 145.65,137.53 142.85,141.32 C138.49,147.34 131.38,159.72 128.09,167.52 C126.63,171.05 125.82,175.74 125.75,177.30 C126.13,177.09 126.37,176.95 126.46,176.87 C126.56,176.78 126.63,176.64 126.68,176.45" fill="none" stroke="rgb(6, 240, 255)" stroke-width="15.00" stroke-opacity="0.78" stroke-linejoin="round"/>
<path d="M210.20,94.89 C209.07,95.90 206.98,97.76 206.02,98.59 C197.14,106.30 188.21,114.61 182.73,120.42 C175.82,127.90 169.77,134.86 166.29,139.94 C161.35,147.18 154.99,157.63 151.98,163.89 C147.77,173.03 144.63,181.59 141.27,192.97 C137.66,206.05 137.43,206.92 137.31,207.51 C137.31,207.51 137.43,205.77 137.43,205.77" fill="none" stroke="rgb(6, 240, 255)" stroke-width="15.00" stroke-opacity="0.78" stroke-linejoin="round"/>
<path d="M226.76,99.98 C221.84,103.84 214.65,110.41 208.42,117.77 C203.45,123.89 194.46,135.74 188.77,143.90 C184.18,150.75 175.78,164.08 172.27,170.68 C167.55,179.81 164.29,186.52 160.76,194.83 C156.88,204.63 154.59,212.78 152.09,224.55 C151.80,225.94 151.60,226.84 151.47,227.23 C150.98,228.76 149.95,231.05 149.96,230.96" fill="none" stroke="rgb(6, 240, 255)" stroke-width="15.00" stroke-opacity="0.78" stroke-linejoin="round"/>
<path d="M182.54,171.85 C182.54,171.85 181.57,171.11 181.57,171.11 C181.42,174.51 186.67,187.01 190.84,193.60 C194.68,199.61 204.02,211.26 208.44,215.89 C212.72,220.35 222.12,228.49 231.01,235.45 C231.01,235.45 226.50,233.76 226.50,233.76" fill="none" stroke="rgb(6, 240, 255)" stroke-width="15.00" stroke-opacity="0.78" stroke-linejoin="round"/>
<path d="M192.14,140.25 C192.14,140.25 189.76,138.92 189.76,138.92 C191.05,142.88 199.71,156.73 204.00,163.42 C208.91,170.76 217.21,181.16 220.39,184.82 C241.25,208.48 263.61,226.70 263.96,226.58 C263.96,226.58 261.32,220.76 261.32,220.76" fill="none" stroke="rgb(6, 240, 255)" stroke-width="15.00" stroke-opacity="0.78" stroke-linejoin="round"/>
<path d="M209.82,121.60 C209.82,121.60 209.19,121.38 209.19,121.38 C209.50,125.00 217.27,140.26 222.24,147.36 C225.77,152.37 235.00,163.08 239.96,167.90 C244.77,172.55 261.77,186.86 264.63,189.93" fill="none" stroke="rgb(6, 240, 255)" stroke-width="15.00" stroke-opacity="0.78" stroke-linejoin="round"/>
<path d="M258.58,111.11 C261.94,109.28 292.56,87.24 303.90,80.36 C311.05,76.22 318.54,72.03 319.54,71.47 C319.54,71.47 318.33,71.47 318.33,71.47" fill="none" stroke="rgb(6, 240, 255)" stroke-width="15.00" stroke-opacity="0.78" stroke-linejoin="round"/>
<path d="M321.99,66.12 C321.99,66.12 320.45,66.38 320.45,66.38 C320.20,64.64 320.55,59.88 321.35,57.98 C321.95,56.66 323.74,54.55 325.19,53.53 C326.84,52.43 329.96,51.41 332.15,51.27 C334.20,51.17 337.87,51.73 339.76,52.38 C341.67,53.09 343.36,54.36 344.17,55.60 C344.74,56.58 344.86,58.45 344.44,59.55 C343.13,62.65 333.45,69.34 331.90,69.90 C330.62,70.32 328.68,70.47 328.50,69.82 C328.12,67.99 328.12,65.67 328.88,64.74 C330.41,62.91 336.49,59.15 338.89,57.67 C338.89,57.67 326.82,62.46 326.82,62.46 C326.82,62.46 337.89,57.59 337.89,57.59 C337.24,58.68 336.50,59.44 335.04,60.42 C334.17,60.99 333.06,61.73 332.94,61.78" fill="none" stroke="rgb(6, 240, 255)" stroke-width="15.00" stroke-opacity="0.78" stroke-linejoin="round"/>
<path d="M326.28,71.12 C326.28,71.12 326.87,70.91 326.87,70.91 C326.87,70.91 267.67,112.85 267.67,112.85" fill="none" stroke="rgb(6, 240, 255)" stroke-width="15.00" stroke-opacity="0.78" stroke-linejoin="round"/>
<path d="M259.96,107.50 C259.96,107.50 259.41,107.72 259.41,107.72 C259.41,107.72 259.29,105.38 259.29,105.38" fill="none" stroke="rgb(6, 240, 255)" stroke-width="15.00" stroke-opacity="0.78" stroke-linejoin="round"/>
<path d="M150.07,230.85 C150.07,230.85 150.83,229.95 150.83,229.95 C150.83,229.95 150.83,238.42 150.83,238.42 C150.83,238.42 150.83,236.26 150.83,236.26" fill="none" stroke="rgb(6, 240, 255)" stroke-width="15.00" stroke-opacity="0.78" stroke-linejoin="round"/>
<path d="M124.43,227.67 C124.43,227.67 125.23,227.67 125.23,227.67 C125.28,227.63 118.12,230.29 115.98,230.93 C112.07,232.07 105.48,232.14 101.42,231.44 C97.60,230.73 91.71,228.32 88.88,226.80 C86.31,225.39 82.67,222.70 78.96,219.44 C76.58,217.32 73.57,212.23 71.06,207.10 C69.38,203.54 66.34,197.14 64.81,194.68 C64.29,193.87 61.71,191.37 60.62,190.65 C58.83,189.51 51.68,187.57 46.70,187.32 C42.29,187.18 36.31,186.99 34.75,186.94 C34.75,186.94 34.75,184.71 34.75,184.71" fill="none" stroke="rgb(6, 240, 255)" stroke-width="15.00" stroke-opacity="0.78" stroke-linejoin="round"/>
</g>
</svg>
