<?xml version="1.0" encoding="UTF-8" standalone="no"?>
<!DOCTYPE svg PUBLIC "-//W3C//DTD SVG 1.1//EN" "http://www.w3.org/Graphics/SVG/1.1/DTD/svg11.dtd">
<svg width="370.00" height="320.00" viewBox="0.00 0.00 370.00 320.00" xmlns="http://www.w3.org/2000/svg" xmlns:xlink="http://www.w3.org/1999/xlink">
<g stroke-linecap="round" transform="translate(-4.00, -2.00)" id="icon-dev">
<path d="M163.71,48.96 C163.45,48.81 163.18,48.74 162.90,48.73 C161.39,48.71 155.70,49.60 153.82,51.01 C151.20,53.04 145.21,58.64 142.94,61.41 C140.87,63.98 137.41,69.29 136.18,72.29 C134.92,75.40 133.63,81.11 133.61,83.83 C133.64,86.91 134.32,90.63 135.54,94.00 C136.36,96.16 139.63,99.73 143.95,103.85 C147.04,106.75 154.12,113.42 155.89,115.43 C157.44,117.21 159.69,123.42 160.48,126.92 C161.40,131.14 161.93,136.00 161.97,141.08 C161.95,145.57 160.83,148.72 158.09,154.17 C154.75,160.75 147.30,175.56 146.09,178.41 C144.71,181.70 138.79,198.21 136.75,204.38 C134.01,212.88 130.46,225.49 128.79,233.84 C126.70,244.88 125.63,254.91 126.37,259.37 C126.96,262.56 129.79,267.39 133.20,271.00 C136.01,273.88 148.90,281.03 156.01,284.82 C164.52,289.10 175.54,293.00 182.11,294.14 C189.71,295.43 204.60,295.38 211.25,294.61 C215.42,294.10 221.21,292.43 224.77,290.90 C230.49,288.39 244.36,279.99 246.40,277.53 C248.20,275.29 250.32,270.48 250.73,268.44 C251.57,264.15 252.00,247.87 251.24,241.11 C250.75,236.87 247.30,217.93 245.93,213.40 C244.97,210.28 242.41,205.32 240.56,202.90 C239.83,201.95 234.64,195.77 232.90,193.27 C231.03,190.56 228.71,185.30 227.64,181.49 C225.66,173.55 222.44,161.22 219.25,151.85 C218.08,148.29 217.62,144.13 218.08,139.38 C218.48,135.61 220.18,131.49 222.40,127.95 C224.62,124.43 227.24,119.29 228.08,117.31 C229.16,114.73 234.05,89.26 233.86,86.01 C233.45,79.67 230.57,70.72 225.71,59.63 C224.11,56.00 222.84,53.96 220.53,51.50 C217.49,48.32 214.22,45.77 210.76,43.93 C207.74,42.39 203.10,41.53 197.90,41.18 C189.26,40.68 176.25,42.46 164.46,44.64 C162.98,44.91 162.08,45.08 161.74,45.17 C161.27,45.30 160.29,45.61 158.82,46.11" fill="none" stroke="rgb(6, 240, 255)" stroke-width="12.00" stroke-opacity="0.78" stroke-linejoin="round"/>
<path d="M197.57,222.21 C197.57,222.21 196.56,222.21 196.56,222.21 C200.41,224.76 204.87,227.36 207.42,228.39 C212.15,230.27 226.00,233.51 232.92,233.69 C238.01,233.78 250.65,231.67 255.70,229.74 C259.37,228.32 266.00,224.91 269.01,222.63 C274.87,218.10 283.04,208.12 286.98,201.65 C290.04,196.57 296.12,182.28 297.74,176.18 C298.68,172.60 304.08,148.55 304.83,146.29 C305.63,143.90 308.92,136.22 309.95,134.44 C311.85,131.21 316.05,126.66 318.35,124.74 C320.34,123.13 324.54,121.11 328.17,119.88 C335.06,117.57 344.93,115.84 348.52,115.47 C349.06,117.02 349.54,118.55 349.85,119.59 C350.32,121.13 350.16,122.38 349.28,123.91 C346.83,128.01 338.24,135.53 335.81,138.87 C333.07,142.67 323.47,160.65 322.32,164.79 C320.65,170.88 310.78,195.00 301.37,220.38 C299.72,224.63 297.57,228.81 295.35,231.71 C290.74,237.65 284.46,243.45 277.77,247.97 C271.93,251.88 257.58,257.96 250.35,259.47 C245.65,260.41 239.67,260.67 236.15,260.07 C232.60,259.44 213.29,254.53 211.84,253.97 C208.31,252.55 203.49,248.12 202.99,247.85 C202.65,247.67 201.89,247.39 200.72,247.00" fill="none" stroke="rgb(6, 240, 255)" stroke-width="12.00" stroke-opacity="0.78" stroke-linejoin="round"/>
<path d="M147.93,45.09 C147.93,45.09 147.50,45.46 147.50,45.46 C147.50,45.46 147.83,18.83 147.83,18.83 C147.83,18.83 161.69,43.97 161.69,43.97" fill="none" stroke="rgb(6, 240, 255)" stroke-width="12.00" stroke-opacity="0.78" stroke-linejoin="round"/>
<path d="M148.18,29.41 C148.18,29.41 147.17,28.84 147.17,28.84 C146.14,29.77 145.14,34.72 144.64,39.13 C143.77,47.16 142.77,56.44 142.63,57.68 C142.63,57.68 146.15,43.01 146.15,43.01 C146.15,43.01 147.16,43.72 147.16,43.72" fill="none" stroke="rgb(6, 240, 255)" stroke-width="12.00" stroke-opacity="0.78" stroke-linejoin="round"/>
<path d="M211.71,44.98 C211.71,44.98 210.45,44.76 210.45,44.76 C210.67,42.52 210.96,41.00 211.59,39.87 C213.00,37.36 217.56,31.44 219.62,29.12 C220.90,27.73 223.72,25.79 225.67,25.01 C226.62,24.63 229.28,24.03 230.80,23.37 C230.80,23.37 229.78,54.50 229.78,54.50 C229.78,54.50 229.78,48.78 229.78,48.78" fill="none" stroke="rgb(6, 240, 255)" stroke-width="12.00" stroke-opacity="0.78" stroke-linejoin="round"/>
<path d="M229.14,43.96 C228.44,45.29 227.37,49.14 225.98,55.26 C225.07,59.37 223.89,64.76 223.61,66.03 C223.61,66.03 223.59,64.38 223.59,64.38" fill="none" stroke="rgb(6, 240, 255)" stroke-width="12.00" stroke-opacity="0.78" stroke-linejoin="round"/>
<path d="M226.62,29.29 C226.62,29.29 227.00,29.52 227.00,29.52 C227.00,29.52 228.77,27.97 228.77,27.97 C228.77,27.97 217.12,40.76 217.12,40.76 C217.12,40.76 221.54,35.19 221.54,35.19 C221.54,35.19 219.64,37.93 219.64,37.93 C219.64,37.93 225.57,32.01 225.57,32.01 C225.57,32.01 221.70,41.10 221.70,41.10 C221.70,41.10 224.18,37.05 224.18,37.05 C224.03,38.84 223.71,40.28 222.88,42.61 C222.05,44.93 220.75,48.15 220.17,49.29 C220.01,49.60 219.89,49.72 219.82,49.64" fill="none" stroke="rgb(6, 240, 255)" stroke-width="12.00" stroke-opacity="0.78" stroke-linejoin="round"/>
<path d="M145.14,38.04 C145.67,38.20 146.10,38.22 146.44,38.08 C146.96,37.88 150.35,35.47 151.58,34.60 C151.58,34.60 153.69,50.21 153.69,50.21 C153.69,50.21 154.80,40.69 154.80,40.69 C153.67,42.33 152.98,43.46 152.27,44.91 C151.57,46.36 151.15,47.27 150.67,48.41" fill="none" stroke="rgb(6, 240, 255)" stroke-width="12.00" stroke-opacity="0.78" stroke-linejoin="round"/>
<path d="M332.34,132.86 C332.34,132.86 331.34,132.50 331.34,132.50 C331.34,132.50 336.08,126.70 336.08,126.70 C331.10,128.35 322.25,135.16 321.23,135.96 C321.23,135.96 334.10,126.85 334.10,126.85 C334.10,126.85 324.58,131.09 324.58,131.09 C324.58,131.09 340.84,119.77 340.84,119.77 C340.84,119.77 316.36,130.28 316.36,130.28 C316.36,130.28 333.56,123.64 333.56,123.64 C332.50,125.48 329.82,127.93 326.33,130.10 C323.71,131.71 319.68,133.98 318.63,134.57 C318.63,134.57 318.67,129.44 318.67,129.44 C318.67,129.44 316.89,128.84 316.89,128.84 C316.89,128.84 322.51,131.02 322.51,131.02 C322.51,131.02 314.85,132.15 314.85,132.15 C316.26,133.67 317.40,134.38 319.62,134.87 C321.47,135.30 324.57,135.99 325.81,136.27 C325.81,136.27 317.41,134.89 317.41,134.89 C317.41,134.89 326.50,137.38 326.50,137.38 C326.50,137.38 324.09,137.35 324.09,137.35 C324.09,137.35 329.93,139.75 329.93,139.75 C328.48,140.85 320.66,136.17 318.79,135.83 C318.79,135.83 323.49,138.66 323.49,138.66 C323.49,138.66 316.52,138.16 316.52,138.16 C316.52,138.16 322.47,139.80 322.47,139.80 C322.47,139.80 321.13,139.04 321.13,139.04 C320.98,138.85 322.43,139.50 323.90,140.30 C323.95,140.33 324.07,140.46 324.01,140.44" fill="none" stroke="rgb(6, 240, 255)" stroke-width="12.00" stroke-opacity="0.78" stroke-linejoin="round"/>
<path d="M316.68,138.09 C316.23,138.57 315.91,138.85 315.71,138.93 C315.15,139.16 306.39,140.69 305.71,141.23 C305.71,141.23 321.82,145.24 321.82,145.24 C321.82,145.24 317.53,145.25 317.53,145.25 C317.53,145.25 324.76,145.81 324.76,145.81" fill="none" stroke="rgb(6, 240, 255)" stroke-width="12.00" stroke-opacity="0.78" stroke-linejoin="round"/>
<path d="M230.66,69.08 C230.66,69.08 230.66,70.78 230.66,70.78 C230.66,70.78 226.59,62.73 225.70,61.29 C223.68,58.12 217.69,52.06 215.40,50.23 C212.34,47.82 206.57,44.34 202.85,42.56 C199.96,41.21 194.68,40.36 190.96,40.29 C187.33,40.27 180.94,41.55 176.68,43.16 C169.40,46.05 156.37,51.52 150.96,54.76 C148.52,56.26 145.61,60.58 142.78,65.78 C140.88,69.41 137.06,76.76 135.93,79.15 C134.95,81.25 133.87,86.12 133.58,89.58 C133.33,92.84 134.36,98.78 135.27,100.66 C135.91,101.96 138.39,105.66 139.01,106.53 C140.67,108.80 141.99,109.84 143.80,110.15 C144.16,110.21 145.06,110.31 146.49,110.46" fill="none" stroke="rgb(6, 240, 255)" stroke-width="12.00" stroke-opacity="0.78" stroke-linejoin="round"/>
<path d="M154.24,62.71 C154.24,62.71 153.93,61.01 153.93,61.01 C152.05,61.29 150.94,61.74 149.82,62.93 C147.84,65.01 142.86,70.99 141.95,72.60 C139.91,76.30 138.53,82.17 138.60,84.86 C138.71,87.23 139.92,91.06 142.00,96.10 C143.47,99.60 145.54,103.44 146.65,104.71 C148.09,106.30 155.90,112.62 156.63,113.38 C154.02,111.88 150.69,107.00 149.28,103.45 C148.17,100.59 145.63,91.86 145.20,88.29 C144.80,84.64 145.14,78.68 145.93,75.90 C146.72,73.24 150.05,67.98 152.26,65.55 C154.50,63.12 160.87,57.67 164.07,55.73 C170.17,52.10 181.60,48.11 187.92,46.54 C191.59,45.66 198.63,44.98 203.29,45.25 C209.22,45.70 212.17,46.05 214.05,46.98 C219.45,49.77 229.10,58.20 230.49,60.72 C231.47,62.56 235.03,70.57 235.77,73.16 C236.47,75.72 236.67,81.79 236.21,86.01 C235.74,90.10 231.81,104.93 231.48,105.36 C231.42,105.44 225.43,110.98 222.32,114.21 C222.30,114.22 222.26,114.22 222.27,114.21" fill="none" stroke="rgb(6, 240, 255)" stroke-width="12.00" stroke-opacity="0.78" stroke-linejoin="round"/>
<path d="M141.99,105.91 C141.99,105.91 143.44,102.27 143.44,102.27 C142.89,102.57 142.95,103.18 143.89,105.38 C147.11,113.05 151.47,123.43 152.79,126.74 C152.79,126.74 145.11,109.60 145.11,109.60 C145.11,109.60 153.27,124.46 153.27,124.46 C153.27,124.46 148.64,111.15 148.64,111.15 C151.20,120.17 153.48,130.36 154.52,138.33 C155.59,146.73 155.40,156.29 154.81,159.31 C159.59,137.22 158.19,130.15 157.78,129.44 C155.94,136.00 152.96,152.22 152.30,155.19 C150.78,161.94 146.36,170.47 145.17,171.66 C144.71,172.10 143.99,172.69 143.01,173.41 C142.97,173.44 142.84,173.47 142.87,173.44" fill="none" stroke="rgb(6, 240, 255)" stroke-width="12.00" stroke-opacity="0.78" stroke-linejoin="round"/>
<path d="M229.90,112.51 C229.90,112.51 229.02,111.80 229.02,111.80 C229.02,111.80 228.69,109.68 228.69,109.68 C227.22,110.24 223.98,115.19 223.39,116.27 C222.04,118.79 218.59,126.66 217.06,130.16 C217.06,130.16 220.98,116.95 220.98,116.95 C218.94,123.89 217.81,131.61 217.86,139.95 C217.95,139.66 222.51,116.22 223.08,112.37 C223.67,108.44 225.01,103.77 226.68,100.49 C228.77,96.41 230.26,91.91 230.47,88.95 C230.65,86.05 230.64,77.49 230.42,75.05 C230.03,71.08 226.63,62.02 225.61,60.60 C224.78,59.46 221.70,57.14 221.19,56.45 C221.04,56.26 221.04,55.96 221.19,55.56" fill="none" stroke="rgb(6, 240, 255)" stroke-width="12.00" stroke-opacity="0.78" stroke-linejoin="round"/>
<path d="M229.65,77.83 C229.65,77.67 229.65,77.52 229.65,77.36 C229.65,72.28 229.47,70.17 228.37,67.52 C227.31,65.06 224.06,59.86 223.47,59.66 C226.14,70.71 229.65,82.03 230.23,88.46 C230.40,90.39 230.40,92.31 230.27,94.33 C230.23,94.81 230.19,95.30 230.16,95.79" fill="none" stroke="rgb(6, 240, 255)" stroke-width="12.00" stroke-opacity="0.78" stroke-linejoin="round"/>
<path d="M130.11,236.65 C130.11,236.65 129.86,236.20 129.86,236.20 C130.11,241.90 131.02,247.59 132.56,250.54 C135.02,255.09 141.40,260.33 150.40,266.99 C146.13,263.05 142.39,259.26 140.85,256.53 C140.41,255.75 138.25,251.41 136.86,249.63 C136.35,251.70 136.95,257.26 137.96,259.58 C138.54,260.88 140.07,263.27 141.33,264.88 C142.63,266.54 143.88,267.36 145.68,267.94 C145.19,265.08 136.60,250.12 134.92,244.19 C132.94,236.90 134.87,231.00 135.82,228.32 C135.31,233.04 135.00,237.68 135.36,241.73 C136.02,248.74 138.46,256.86 140.33,260.09 C140.33,260.09 136.70,238.84 136.70,238.84 C134.80,243.00 133.97,253.02 134.26,254.99 C134.69,257.54 139.41,264.57 140.86,265.75 C141.92,266.58 147.30,269.09 148.66,269.71 C148.66,269.71 145.56,255.84 145.56,255.84 C144.51,258.19 144.15,259.66 144.44,261.14 C145.08,264.24 147.62,269.29 150.77,271.90 C152.53,273.33 154.27,274.12 156.49,274.68 C156.49,274.68 146.49,264.57 146.49,264.57 C148.49,267.44 153.70,272.61 156.53,275.14 C162.06,280.04 168.56,283.67 169.41,284.15 C169.23,283.26 165.82,278.49 163.71,275.63 C161.50,272.67 158.06,269.35 156.71,269.17 C156.38,269.05 160.94,276.42 163.41,279.37 C165.69,282.06 170.52,286.41 172.24,287.33 C176.85,289.73 191.00,291.00 199.81,290.90 C201.41,290.89 222.12,292.91 226.70,292.21 C229.38,291.78 237.43,289.55 240.77,288.30 C242.21,287.74 242.59,287.28 243.55,285.19 C245.73,280.95 248.73,272.15 248.72,272.19" fill="none" stroke="rgb(6, 240, 255)" stroke-width="12.00" stroke-opacity="0.78" stroke-linejoin="round"/>
<path d="M150.32,171.74 C150.32,171.32 150.32,170.90 150.32,170.47 C150.32,170.10 150.32,169.72 150.32,169.34 C150.32,169.13 150.32,168.91 150.32,168.69 C147.74,181.04 138.64,214.91 137.26,224.84 C136.76,228.38 135.22,236.02 135.29,237.12 C135.29,237.12 135.41,234.07 135.41,234.07" fill="none" stroke="rgb(6, 240, 255)" stroke-width="12.00" stroke-opacity="0.78" stroke-linejoin="round"/>
<path d="M160.18,135.59 C160.18,135.59 161.18,135.48 161.18,135.48 C162.62,136.65 166.69,142.87 167.18,143.35 C168.82,144.96 170.94,145.98 172.42,146.04 C172.42,146.04 179.38,133.54 179.38,133.54 C179.38,133.54 184.14,150.45 184.14,150.45 C185.30,150.25 189.12,146.11 190.96,142.82 C192.80,139.53 196.68,135.31 197.29,135.55 C197.81,136.72 198.38,138.39 199.19,141.17 C200.14,144.45 203.50,149.49 203.66,149.78 C204.94,152.02 205.97,153.25 206.54,153.35 C207.94,152.03 209.65,146.01 210.65,142.52 C211.21,140.51 211.80,139.25 213.10,137.06 C213.10,137.06 216.64,151.89 216.64,151.89" fill="none" stroke="rgb(6, 240, 255)" stroke-width="10.00" stroke-opacity="0.78" stroke-linejoin="round"/>
<path d="M159.80,157.98 C159.80,157.98 159.50,156.81 159.50,156.81 C159.10,156.90 158.37,159.26 158.44,160.97 C158.46,161.53 160.90,168.90 161.87,174.20 C162.25,176.35 162.51,177.17 162.90,177.71 C170.83,171.39 173.31,167.86 174.45,165.82 C177.58,176.64 179.94,181.70 181.40,182.84 C182.61,181.88 186.71,176.55 189.13,173.42 C192.65,168.69 194.95,165.01 195.44,163.22 C196.64,164.62 198.69,168.29 200.35,172.08 C201.65,175.03 204.29,177.45 205.32,178.03 C207.11,177.34 208.02,176.57 209.45,174.26 C211.76,170.55 216.50,164.71 218.66,162.07" fill="none" stroke="rgb(6, 240, 255)" stroke-width="10.00" stroke-opacity="0.78" stroke-linejoin="round"/>
<path d="M278.66,219.26 C278.66,219.26 277.95,219.16 277.95,219.16 C277.71,218.68 277.94,216.73 278.51,214.71 C278.57,214.50 278.53,212.89 278.56,212.72 C278.75,211.66 279.95,210.25 281.18,209.68 C283.47,208.68 288.80,208.12 292.80,208.20 C292.76,207.40 291.85,204.54 291.91,204.10 C292.37,200.79 297.13,199.18 298.07,198.99 C298.07,198.99 297.11,198.48 297.11,198.48 C296.76,196.01 296.79,194.57 297.39,193.47 C298.42,191.59 300.68,189.23 301.70,188.23 C301.70,188.23 300.51,187.92 300.51,187.92 C300.51,187.92 306.06,187.77 306.06,187.77 C306.06,187.77 299.51,184.23 299.51,184.23 C299.51,184.23 305.11,185.94 305.11,185.94 C305.11,185.94 301.62,184.42 301.62,184.42 C301.62,184.42 303.46,189.23 303.46,189.23 C303.46,189.23 298.17,191.45 298.17,191.45 C298.17,191.45 297.57,193.01 297.57,193.01 C297.57,193.01 299.44,196.40 299.44,196.40 C299.44,196.40 292.64,200.44 292.64,200.44 C292.64,200.44 296.33,202.65 296.33,202.65 C296.33,202.65 294.86,203.90 294.86,203.90 C294.86,203.90 297.03,207.60 297.03,207.60 C297.03,207.60 292.94,207.73 292.94,207.73 C296.37,207.64 303.53,207.38 303.86,207.26 C304.92,206.77 305.24,205.33 304.91,202.58 C304.74,200.97 304.49,198.83 304.37,198.19 C304.37,198.19 301.90,201.51 301.90,201.51 C301.90,201.51 305.39,194.53 305.39,194.53 C305.39,194.53 300.35,202.04 300.35,202.04 C300.35,202.04 304.97,194.64 304.97,194.64 C304.42,195.70 303.04,198.33 302.21,199.90 C301.23,201.80 300.36,202.64 298.77,203.52 C298.77,203.52 300.92,197.68 300.92,197.68 C300.92,197.68 298.02,201.40 298.02,201.40 C298.02,201.40 302.62,193.52 302.62,193.52 C302.62,193.52 299.37,198.43 299.37,198.43 C299.37,198.43 297.64,198.12 297.64,198.12 C297.64,198.12 299.45,192.88 299.45,192.88 C299.45,192.88 290.58,203.30 290.58,203.30 C290.75,204.67 291.52,206.34 292.72,207.42 C294.65,209.13 297.87,210.71 298.03,210.56 C298.03,210.56 293.04,207.49 293.04,207.49 C293.04,207.49 294.19,208.66 294.19,208.66 C294.19,208.66 290.52,210.45 290.52,210.45 C290.52,210.45 293.44,210.98 293.44,210.98 C293.44,210.98 288.54,211.68 288.54,211.68 C288.54,211.68 294.00,212.50 294.00,212.50 C294.00,212.50 290.75,212.18 290.75,212.18 C290.75,212.18 295.81,214.58 295.81,214.58 C295.81,214.58 292.64,213.94 292.64,213.94 C292.64,213.94 296.78,216.01 296.78,216.01 C296.78,216.01 293.62,213.04 293.62,213.04 C293.62,213.04 296.69,214.53 296.69,214.53 C296.69,214.53 295.13,215.39 295.13,215.39" fill="none" stroke="rgb(6, 240, 255)" stroke-width="10.00" stroke-opacity="0.78" stroke-linejoin="round"/>
<path d="M131.12,93.86 C131.12,93.86 131.68,93.82 131.68,93.82 C126.21,92.80 121.93,92.18 118.29,91.92 C116.73,91.82 114.69,91.69 114.48,91.70" fill="none" stroke="rgb(6, 240, 255)" stroke-width="10.00" stroke-opacity="0.78" stroke-linejoin="round"/>
<path d="M141.97,110.33 C142.01,110.32 140.48,110.88 139.10,111.38 C134.85,112.90 128.10,115.34 127.50,115.50 C127.04,115.62 126.16,115.80 124.86,116.03" fill="none" stroke="rgb(6, 240, 255)" stroke-width="10.00" stroke-opacity="0.78" stroke-linejoin="round"/>
<path d="M236.85,86.47 C236.85,86.47 236.50,85.91 236.50,85.91 C236.50,85.91 258.76,81.90 258.76,81.90 C258.76,81.90 253.20,85.52 253.20,85.52" fill="none" stroke="rgb(6, 240, 255)" stroke-width="10.00" stroke-opacity="0.78" stroke-linejoin="round"/>
<path d="M235.71,104.21 C235.71,104.21 235.50,104.40 235.50,104.40 C235.50,104.40 234.95,104.44 234.95,104.44 C235.03,104.52 235.63,104.77 238.02,105.69 C246.24,108.86 255.76,112.53 257.06,113.04 C257.06,113.04 254.57,113.19 254.57,113.19" fill="none" stroke="rgb(6, 240, 255)" stroke-width="10.00" stroke-opacity="0.78" stroke-linejoin="round"/>
<path d="M163.59,73.40 C163.59,73.40 162.68,72.21 162.68,72.21 C160.34,74.81 156.20,81.48 155.82,82.19 C154.60,84.41 153.90,86.50 153.58,88.56 C153.58,88.56 154.40,89.35 154.40,89.35 C158.81,85.65 161.13,79.15 161.67,77.43 C160.20,78.21 159.37,79.80 159.19,82.49 C159.07,84.34 160.29,89.68 161.13,90.40 C161.40,90.63 162.11,91.01 163.25,91.52 C165.03,89.70 165.98,88.47 166.39,87.23 C167.15,84.81 166.83,79.92 165.80,76.86 C165.21,75.16 164.00,74.37 161.59,73.77 C159.81,75.04 158.58,77.03 158.69,79.23 C158.81,81.59 160.09,83.31 161.59,83.78 C163.34,82.07 164.27,80.80 164.73,79.20 C165.17,77.65 165.55,75.48 165.62,74.02 C165.68,72.56 165.08,71.15 163.67,68.99 C161.46,69.57 160.32,70.24 159.72,71.58 C158.62,74.10 157.83,79.65 158.05,83.65 C158.19,85.89 158.82,87.80 160.15,90.55 C161.82,90.06 162.85,89.43 163.26,88.31 C164.09,85.93 164.12,81.44 164.03,77.07 C164.03,77.07 161.33,77.34 161.33,77.34 C160.29,78.99 158.87,81.62 158.54,82.95 C157.98,85.24 159.44,94.71 160.38,96.70 C160.88,97.77 162.33,99.78 163.31,101.03 C163.31,101.03 166.05,100.49 166.05,100.49 C167.40,97.25 168.54,92.69 168.49,89.16 C168.38,85.64 167.09,81.90 165.69,79.65 C165.69,79.65 164.07,80.43 164.07,80.43 C163.43,83.18 163.22,87.50 163.79,91.62 C164.46,95.96 165.49,97.41 167.03,98.70 C168.52,97.54 169.26,96.48 169.50,94.70 C169.93,91.60 170.11,85.14 170.03,82.79 C169.85,77.92 169.01,73.95 168.00,71.54 C168.00,71.54 166.23,72.29 166.23,72.29 C165.40,74.08 164.94,78.20 164.88,84.97 C164.93,91.76 165.20,96.31 165.64,98.23 C166.63,96.32 167.28,91.02 167.33,85.96 C167.29,77.40 166.71,71.10 166.21,67.35 C166.21,67.35 166.43,102.22 166.43,102.22 C166.02,101.43 160.08,77.05 158.66,73.56 C158.05,72.08 156.92,71.28 155.14,70.51 C153.54,74.99 153.16,83.80 153.85,94.29 C153.98,96.54 154.25,98.02 154.97,100.78 C155.92,98.68 156.14,94.32 155.97,90.76 C155.37,80.80 154.67,75.78 153.76,74.88 C152.93,89.74 155.75,103.16 155.99,104.08 C157.07,103.46 157.57,99.26 157.73,95.54 C157.92,88.36 158.14,78.97 158.39,77.83 C158.91,81.25 160.12,89.34 160.82,94.01 C161.61,99.02 162.36,102.92 163.68,104.40 C164.03,100.91 161.59,68.23 160.34,58.20 C160.18,56.71 161.20,54.91 163.01,53.27 C170.02,47.12 186.52,41.80 187.44,41.50 C187.44,41.50 188.00,42.40 188.00,42.40 C185.82,45.32 172.92,57.78 167.16,63.32 C165.60,64.79 165.09,65.51 164.61,66.79 C164.61,66.79 188.37,57.51 188.37,57.51 C188.37,57.51 167.52,68.26 167.52,68.26 C167.52,68.26 196.41,49.22 196.41,49.22 C196.41,49.22 170.54,60.71 170.54,60.71 C170.54,60.71 190.98,46.68 190.98,46.68 C179.06,53.73 175.60,55.69 174.73,56.01 C174.30,56.17 173.82,56.20 173.28,56.12" fill="none" stroke="rgb(6, 240, 255)" stroke-width="10.00" stroke-opacity="0.78" stroke-linejoin="round"/>
<path d="M183.17,91.36 C183.17,91.36 181.47,90.67 181.47,90.67 C181.47,90.67 181.17,88.88 181.17,88.88 C181.17,88.88 184.26,87.68 184.26,87.68 C184.26,87.68 185.05,88.31 185.05,88.31 C184.24,90.37 178.98,95.41 177.62,96.59 C174.53,99.13 170.85,102.18 169.40,103.57 C169.40,103.57 176.02,103.72 176.02,103.72 C176.02,103.72 166.01,112.35 166.01,112.35 C166.01,112.35 178.34,109.33 178.34,109.33 C178.60,107.81 176.72,100.69 176.14,97.09 C175.42,92.46 175.48,86.26 176.32,81.92 C176.74,79.91 177.82,76.74 178.64,75.23 C181.14,70.81 188.43,68.08 189.20,67.80 C189.20,67.80 182.84,67.45 182.84,67.45 C184.32,66.43 188.74,64.69 195.11,62.70 C197.69,61.89 198.81,61.83 199.94,62.25 C199.51,63.42 198.60,64.28 196.04,65.70 C193.52,67.08 190.24,68.29 189.04,68.13 C188.64,68.07 188.22,67.71 187.79,67.06 C188.52,65.03 194.18,59.60 194.54,59.32 C196.57,57.81 198.72,57.12 200.76,57.15 C201.69,58.03 201.78,58.98 200.87,60.80 C199.96,62.61 199.20,63.46 198.07,64.11 C196.91,62.95 198.56,58.90 201.42,54.37 C202.45,52.77 203.47,51.86 205.50,50.57 C205.50,50.57 206.27,51.87 206.27,51.87 C204.69,56.92 199.79,64.99 193.83,74.19 C193.83,74.19 206.37,64.13 206.37,64.13 C205.70,67.41 196.73,78.29 194.25,80.74 C194.25,80.74 207.88,67.20 207.88,67.20 C208.18,68.12 207.91,68.99 206.50,70.95 C201.54,77.82 193.65,86.87 192.39,87.81 C194.47,85.39 198.64,81.23 202.96,77.24 C207.36,73.30 208.04,72.98 209.06,73.02 C207.33,76.52 203.44,81.16 201.07,83.90 C198.58,86.77 194.99,90.24 193.65,90.50 C195.02,88.26 206.97,73.39 208.32,73.07 C208.58,73.01 209.29,72.95 210.43,72.87 C210.43,74.43 209.96,75.97 208.48,78.75 C207.00,81.54 206.15,82.49 205.23,82.64 C205.10,79.70 207.10,71.06 207.58,69.28 C208.52,65.90 209.50,64.63 211.11,62.79 C212.57,63.44 213.49,67.61 214.40,72.27 C214.75,74.04 214.93,75.49 215.17,78.09 C215.17,78.09 216.91,69.89 216.91,69.89 C216.91,69.89 217.17,93.30 217.17,93.30 C217.17,93.30 218.11,77.66 218.11,77.66 C217.49,81.02 216.16,86.46 214.76,91.51 C213.24,96.57 212.72,97.40 211.44,98.71 C210.42,98.04 210.02,96.97 210.04,94.51 C210.06,92.05 210.16,90.57 210.36,88.83 C209.92,90.76 208.71,94.60 206.91,99.64 C205.68,103.00 203.90,106.48 202.16,107.38 C202.16,107.38 202.20,97.45 202.20,97.45 C202.20,97.45 193.45,115.65 193.45,115.65 C193.45,115.65 192.09,115.44 192.09,115.44 C192.09,115.44 192.06,104.32 192.06,104.32 C190.20,106.83 187.74,111.96 187.60,112.23 C186.43,114.49 185.18,115.65 183.97,115.78 C183.97,115.78 183.24,105.80 183.24,105.80 C181.70,108.18 176.59,115.92 176.02,116.48 C174.95,117.48 173.02,117.86 172.41,117.16 C172.13,116.82 170.83,114.42 170.13,113.20 C170.13,113.20 166.32,122.11 166.32,122.11 C166.32,122.11 165.38,121.75 165.38,121.75 C165.38,121.75 164.20,112.47 164.20,112.47 C164.20,112.47 165.09,119.96 165.09,119.96 C165.09,119.96 163.56,106.71 163.56,106.71 C163.56,106.71 164.24,121.85 164.24,121.85 C164.24,121.85 166.80,115.85 166.80,115.85 C167.44,116.20 167.28,121.25 166.91,124.31 C166.68,126.15 166.32,127.46 165.69,129.04 C165.69,129.04 167.46,123.44 167.46,123.44 C167.46,123.44 167.89,131.46 167.89,131.46 C167.89,131.46 171.66,121.15 171.66,121.15 C171.66,121.15 172.26,129.45 172.26,129.45 C172.26,129.45 175.99,119.33 175.99,119.33 C175.99,119.33 176.77,127.53 176.77,127.53 C176.77,127.53 180.70,120.36 180.70,120.36 C180.70,120.36 181.99,126.67 181.99,126.67 C181.99,126.67 186.19,116.80 186.19,116.80 C186.19,116.80 186.90,128.41 186.90,128.41 C186.90,128.41 189.31,123.28 189.31,123.28 C189.31,123.28 190.05,128.94 190.05,128.94 C190.05,128.94 192.44,117.96 192.44,117.96 C192.44,117.96 188.21,132.82 188.21,132.82 C188.21,132.82 188.09,131.53 188.09,131.53 C188.09,131.53 186.42,136.69 186.42,136.69 C186.42,136.69 187.02,131.10 187.02,131.10 C186.12,131.69 185.57,130.83 185.15,127.66 C184.86,125.61 184.27,121.41 183.81,120.82 C182.95,119.78 180.14,118.94 179.21,119.37 C178.00,120.01 174.42,124.98 173.39,128.14 C172.85,129.85 171.77,134.47 171.63,135.41 C171.62,135.49 169.61,137.52 168.56,138.65 C173.52,130.64 180.14,122.58 185.50,118.31 C186.92,117.18 190.66,114.48 191.63,113.74 C193.38,112.46 195.11,111.83 196.21,112.17 C197.21,112.54 198.02,114.60 197.90,116.17 C197.85,116.73 196.37,124.09 196.11,125.35 C196.11,125.35 204.21,110.49 204.21,110.49 C204.68,112.43 203.42,119.59 202.91,121.86 C202.34,124.35 200.67,130.20 200.55,130.34 C200.55,130.34 206.10,116.33 206.10,116.33 C206.10,116.33 206.66,123.62 206.66,123.62 C207.51,120.72 209.51,113.91 210.67,109.99 C211.97,105.66 212.96,103.29 214.83,101.02 C215.04,100.77 215.44,100.30 216.04,99.62 C216.20,100.46 210.58,124.80 210.01,126.98 C208.90,131.15 205.26,137.49 205.12,137.90 C204.68,139.18 204.05,143.26 203.88,145.95 C204.70,142.08 206.28,127.36 206.31,127.15 C206.33,126.95 206.37,126.79 206.41,126.69" fill="none" stroke="rgb(6, 240, 255)" stroke-width="20.00" stroke-opacity="0.78" stroke-linejoin="round"/>
<path d="M156.52,203.00 C156.52,203.00 157.08,199.19 157.08,199.19 C155.84,199.83 153.79,204.26 152.71,207.62 C150.59,214.33 147.73,228.56 147.50,229.01 C147.50,229.01 147.42,201.48 147.42,201.48 C146.09,203.14 142.96,219.52 142.53,225.10 C142.28,228.57 142.44,235.86 143.17,238.04 C143.17,238.04 144.22,237.93 144.22,237.93 C145.74,234.32 148.81,216.05 149.29,210.85 C149.69,206.38 149.84,197.31 150.01,195.46 C150.59,189.22 153.38,183.20 154.06,181.88 C154.09,183.50 154.16,187.54 154.21,189.95 C154.26,192.86 154.60,194.09 155.47,195.26 C155.47,195.26 158.62,189.52 158.62,189.52 C159.72,190.20 160.14,191.19 160.16,193.82 C160.21,198.07 160.79,204.33 160.95,206.00 C160.95,206.00 161.97,206.53 161.97,206.53 C161.97,206.53 166.71,193.67 166.71,193.67 C166.71,193.67 167.33,202.95 167.33,202.95 C167.33,202.95 169.63,179.14 169.63,179.14 C169.63,179.14 167.09,192.62 167.09,192.62 C167.09,192.62 169.00,182.02 169.00,182.02 C166.04,189.44 162.69,192.69 161.20,193.56 C160.00,192.80 159.29,191.71 158.60,189.29 C157.92,186.87 155.08,180.81 154.87,176.89 C154.81,175.73 154.74,174.27 154.75,174.27 C154.85,178.35 159.16,191.64 160.59,193.11 C161.73,194.20 163.93,194.45 165.01,193.64 C165.65,193.13 172.31,185.29 172.99,184.55 C174.81,182.61 176.51,181.67 178.27,180.88 C178.27,180.88 182.57,190.14 182.57,190.14 C182.57,190.14 187.96,184.19 187.96,184.19 C190.40,184.54 192.16,184.36 193.23,183.33 C194.75,181.84 197.58,176.37 197.57,175.44 C197.57,175.44 197.06,191.10 197.06,191.10 C197.04,191.16 198.15,185.80 199.15,182.77 C199.33,182.22 203.13,181.37 203.26,181.32 C203.93,181.10 211.51,176.18 213.78,174.96 C213.78,174.96 214.66,181.03 214.66,181.03 C214.66,181.03 218.31,174.11 218.31,174.11 C218.31,174.11 218.80,183.08 218.80,183.08 C218.80,183.08 220.73,179.21 220.73,179.21 C220.73,179.21 224.48,195.48 224.48,195.48 C224.48,195.48 225.55,183.77 225.55,183.77 C225.55,183.77 226.01,197.44 226.01,197.44 C226.01,197.44 227.37,193.51 227.37,193.51 C228.01,198.20 234.36,209.93 237.74,217.17 C238.25,215.62 238.51,214.09 238.36,212.91 C238.23,211.86 237.55,211.23 236.41,210.78 C233.46,213.41 231.07,216.45 230.57,219.76 C230.57,219.76 233.19,221.88 233.19,221.88 C230.83,221.08 226.62,221.22 223.90,221.11 C220.43,220.93 215.13,219.49 211.46,217.87 C207.54,216.10 202.89,212.98 201.82,210.43 C199.13,203.64 200.56,198.09 201.49,195.34 C201.49,195.34 197.02,199.87 197.02,199.87 C199.64,200.27 206.41,200.05 209.76,200.69 C210.20,200.78 210.98,200.95 212.11,201.20 C211.84,202.32 211.09,203.14 209.82,203.33 C208.51,203.51 206.70,202.76 206.42,201.77 C206.18,200.78 207.10,197.70 207.92,196.48 C208.66,195.44 210.09,194.88 210.83,195.24 C212.34,196.11 213.22,199.69 213.67,204.10 C213.67,204.10 212.36,188.99 212.36,188.99 C212.36,188.99 213.65,200.32 213.65,200.32 C213.65,200.32 214.18,195.63 214.18,195.63 C214.54,197.05 216.80,203.94 218.43,205.78 C219.25,206.70 221.61,208.80 222.48,210.53 C223.22,211.98 224.45,214.39 224.94,215.36 C225.96,214.46 227.00,214.37 228.97,215.27 C230.40,215.93 233.14,217.24 234.00,217.68 C235.14,218.26 238.57,221.79 239.50,221.26 C238.37,219.98 221.80,208.17 218.40,206.62 C216.61,205.83 211.27,204.54 208.72,204.22 C206.10,203.91 197.83,203.46 196.25,203.34 C193.20,203.09 177.20,199.40 172.38,199.05 C171.96,199.02 171.36,199.00 170.57,198.98 C170.57,198.98 184.74,202.16 184.74,202.16 C175.84,201.55 170.86,204.04 169.85,204.90 C169.85,204.90 169.96,206.30 169.96,206.30 C171.92,207.42 176.08,207.61 179.45,207.41 C181.14,207.30 183.94,207.11 185.06,207.03 C185.06,207.03 182.42,199.41 182.42,199.41 C179.17,201.44 174.97,205.33 172.09,209.19 C166.67,216.58 165.53,220.26 165.43,221.48 C167.93,219.03 173.70,211.66 173.71,211.64 C174.94,210.06 176.84,208.59 178.54,208.05 C179.57,207.75 182.52,207.57 184.64,207.50 C185.76,207.47 187.18,207.43 187.26,207.43" fill="none" stroke="rgb(6, 240, 255)" stroke-width="20.00" stroke-opacity="0.78" stroke-linejoin="round"/>
<path d="M189.10,206.87 C189.10,206.87 192.77,203.57 192.77,203.57 C191.19,210.42 190.88,218.45 191.06,230.70 C191.47,246.37 192.02,259.24 192.01,260.12 C191.97,260.12 192.00,255.82 191.03,251.84 C186.50,233.33 182.03,224.45 180.43,221.84 C180.43,221.84 179.33,221.95 179.33,221.95 C179.33,221.95 172.97,242.30 172.97,242.30 C172.97,242.30 174.15,224.71 174.15,224.71 C174.15,224.71 173.12,224.95 173.12,224.95 C173.12,224.95 164.98,244.83 164.98,244.83 C164.44,242.47 163.74,234.69 163.34,232.91 C162.92,230.99 162.00,228.22 161.37,226.69 C161.37,226.69 159.66,226.42 159.66,226.42 C158.08,228.90 157.38,230.40 156.92,232.56 C155.80,238.01 155.37,243.31 155.64,247.13 C155.60,244.25 155.21,240.81 154.36,238.00 C153.08,233.99 152.04,232.61 150.65,231.41 C149.85,233.36 149.56,234.85 149.74,236.82 C150.10,240.45 151.83,246.11 153.36,248.19 C154.26,249.35 155.78,250.48 157.30,251.14 C158.65,251.67 161.18,251.05 162.46,249.79 C164.23,247.94 164.44,243.22 164.23,241.25 C163.73,242.71 163.78,244.34 164.68,246.41 C166.42,250.35 172.54,258.03 173.36,258.45 C173.76,258.65 174.64,258.87 176.00,259.10 C176.00,259.10 177.18,257.78 177.18,257.78 C175.95,254.37 172.53,249.32 170.28,248.42 C169.86,248.25 169.29,248.32 168.57,248.62 C168.78,250.33 169.17,251.39 170.32,252.91 C173.43,257.01 174.42,257.88 176.19,259.09 C173.95,255.82 170.90,252.82 168.70,252.28 C168.40,252.21 168.05,252.34 167.66,252.69 C169.06,255.05 175.93,261.87 177.37,263.22 C180.35,265.98 181.50,266.34 183.06,266.58 C183.35,265.12 183.38,264.16 182.96,263.10 C181.89,260.46 173.92,244.76 172.58,242.97 C172.58,242.97 180.48,254.41 180.48,254.41 C180.48,254.41 171.87,237.12 171.87,237.12 C171.87,237.12 175.36,246.31 175.36,246.31 C173.80,247.17 172.66,247.42 170.24,247.24 C163.91,246.86 156.51,246.30 155.37,246.73 C154.91,246.91 154.31,247.44 153.57,248.32 C154.32,250.71 155.05,251.98 156.66,253.35 C164.11,259.73 165.86,260.10 166.73,260.02 C165.35,258.14 162.38,255.40 158.49,252.53 C156.93,251.38 156.19,251.18 155.34,251.46 C157.32,255.14 166.47,266.19 169.82,268.58 C169.48,266.44 166.94,262.42 164.29,258.93 C159.96,253.33 158.96,252.34 157.42,251.19 C158.16,253.07 167.82,262.93 170.41,264.94 C171.53,265.80 173.11,266.42 175.42,267.11 C175.84,266.44 175.60,265.39 174.41,263.96 C171.35,260.35 167.89,258.88 166.68,258.84 C167.57,260.96 170.93,264.20 174.93,266.44 C180.60,269.55 193.18,273.62 202.09,275.16 C202.09,275.16 177.97,269.24 177.97,269.24 C177.97,269.24 209.01,274.73 209.01,274.73 C209.01,274.73 184.93,273.10 184.93,273.10 C184.93,273.10 189.14,276.44 189.14,276.44 C186.83,276.82 171.49,277.09 171.17,277.39 C170.06,278.76 183.71,280.86 196.16,281.94 C200.03,282.21 208.05,282.72 211.65,282.73 C217.01,282.71 230.69,278.09 237.31,275.34 C242.00,273.38 243.70,272.50 244.21,272.18 C242.96,271.69 240.94,271.04 239.90,270.90 C238.94,270.78 232.24,270.76 229.95,269.95 C218.76,265.79 198.07,257.76 188.47,253.47 C188.47,253.47 187.97,252.01 187.97,252.01" fill="none" stroke="rgb(6, 240, 255)" stroke-width="20.00" stroke-opacity="0.78" stroke-linejoin="round"/>
<path d="M169.52,247.00 C167.76,246.30 166.59,245.88 166.02,245.74 C164.30,245.36 161.52,246.13 160.18,247.14 C159.09,248.03 154.95,255.49 154.12,256.89 C152.56,255.10 149.50,250.28 146.88,248.69 C146.53,248.49 145.88,248.13 144.93,247.63 C144.93,247.63 140.00,251.71 140.00,251.71 C140.00,251.71 141.13,239.57 141.13,239.57 C141.13,239.57 140.50,252.29 140.50,252.29 C141.29,251.71 141.77,251.36 141.94,251.21 C142.10,251.06 142.20,250.92 142.22,250.79" fill="none" stroke="rgb(6, 240, 255)" stroke-width="20.00" stroke-opacity="0.78" stroke-linejoin="round"/>
<path d="M256.05,234.92 C256.05,234.92 257.42,244.51 257.42,244.51 C257.42,244.51 255.21,245.40 255.21,245.40 C254.12,243.96 253.85,242.06 254.85,240.69 C255.09,240.36 255.60,239.94 256.38,239.43 C256.38,239.43 255.98,237.36 255.98,237.36 C255.98,237.36 256.38,243.21 256.38,243.21 C256.38,243.21 256.30,239.38 256.30,239.38 C256.30,239.38 256.30,253.35 256.30,253.35 C255.99,251.13 256.79,249.57 259.06,248.03 C259.06,248.03 261.08,250.68 261.08,250.68 C261.08,250.68 261.23,244.40 261.23,244.40 C261.23,244.40 261.23,247.41 261.23,247.41 C261.23,247.41 260.51,243.29 260.51,243.29" fill="none" stroke="rgb(6, 240, 255)" stroke-width="20.00" stroke-opacity="0.78" stroke-linejoin="round"/>
</g>
</svg>
