<?xml version="1.0" encoding="UTF-8" standalone="no"?>
<!DOCTYPE svg PUBLIC "-//W3C//DTD SVG 1.1//EN" "http://www.w3.org/Graphics/SVG/1.1/DTD/svg11.dtd">
<svg width="370.00" height="320.00" viewBox="0.00 0.00 370.00 320.00" xmlns="http://www.w3.org/2000/svg" xmlns:xlink="http://www.w3.org/1999/xlink">
<g stroke-linecap="round" transform="translate(-4.00, -2.00)" id="icon-dev">
<path d="M82.64,49.19 C84.34,51.41 87.15,57.81 87.55,60.33 C87.83,62.22 87.80,66.23 87.47,68.30 C87.10,70.43 85.89,73.69 84.80,75.50 C83.77,77.15 81.13,80.21 79.80,81.27 C78.44,82.30 74.82,84.08 72.96,84.67 C70.93,85.27 67.48,85.62 65.32,85.45 C61.20,85.05 55.25,82.51 52.40,80.31 C49.76,78.19 46.33,73.76 44.94,70.67 C43.52,67.37 42.56,60.96 43.20,56.88 C43.57,54.74 44.78,51.49 45.87,49.68 C46.91,48.03 49.54,44.96 50.88,43.91 C52.23,42.88 55.86,41.10 57.72,40.51 C59.74,39.90 63.20,39.55 65.35,39.73 C69.47,40.13 75.43,42.67 78.27,44.87 C79.46,45.82 81.81,48.13 82.64,49.19 Z" fill="none" stroke="rgb(6, 240, 255)" stroke-width="17.00" stroke-opacity="1.00" stroke-linejoin="round"/>
<path d="M86.97,142.52 C88.63,144.85 91.13,151.35 91.46,154.19 C91.75,157.02 90.70,163.86 89.58,166.46 C88.43,169.03 84.11,174.37 81.84,176.03 C79.55,177.66 73.12,180.07 70.31,180.35 C67.49,180.60 60.68,179.43 58.08,178.26 C55.49,177.05 50.11,172.62 48.42,170.31 C46.76,167.98 44.26,161.47 43.93,158.64 C43.64,155.80 44.68,148.96 45.80,146.37 C46.96,143.79 51.27,138.45 53.55,136.79 C55.84,135.16 62.27,132.75 65.08,132.47 C67.89,132.23 74.71,133.39 77.31,134.57 C79.89,135.77 85.28,140.20 86.97,142.52 Z" fill="none" stroke="rgb(6, 240, 255)" stroke-width="17.00" stroke-opacity="1.00" stroke-linejoin="round"/>
<path d="M46.39,255.84 C46.14,254.07 46.29,249.85 46.63,247.85 C47.04,245.69 48.31,242.37 49.43,240.51 C50.50,238.80 53.19,235.61 54.54,234.49 C55.91,233.39 59.56,231.43 61.43,230.75 C63.46,230.05 66.91,229.53 69.06,229.60 C71.05,229.71 75.11,230.51 76.74,231.15 C78.37,231.83 81.87,234.09 83.40,235.41 C85.02,236.86 87.20,239.66 88.23,241.60 C89.15,243.41 90.52,247.41 90.80,249.17 C91.05,250.94 90.91,255.17 90.56,257.17 C90.15,259.32 88.89,262.64 87.76,264.51 C86.70,266.21 84.01,269.41 82.65,270.53 C81.28,271.63 77.63,273.59 75.77,274.27 C73.73,274.97 70.28,275.49 68.13,275.41 C66.15,275.31 62.08,274.51 60.45,273.86 C58.83,273.19 55.32,270.92 53.80,269.61 C52.18,268.15 49.99,265.35 48.97,263.41 C48.05,261.60 46.67,257.61 46.39,255.84 Z" fill="none" stroke="rgb(6, 240, 255)" stroke-width="17.00" stroke-opacity="1.00" stroke-linejoin="round"/>
<path d="M204.71,103.89 C206.55,106.41 209.47,122.44 209.62,124.76 C209.71,126.76 208.94,130.17 208.02,131.56 C207.46,132.36 198.76,139.56 197.06,140.58 C195.48,141.48 192.78,141.95 191.27,141.57 C190.89,141.47 178.85,136.31 178.31,135.95 C176.70,134.84 174.38,131.76 173.57,129.79 C172.44,126.87 170.35,117.22 170.19,113.89 C170.06,110.30 171.94,104.60 174.18,101.67 C175.33,100.22 177.57,98.36 179.21,97.50 C182.49,95.86 188.71,95.19 192.52,96.07 C196.01,96.93 202.89,101.52 204.71,103.89 Z" fill="none" stroke="rgb(6, 240, 255)" stroke-width="17.00" stroke-opacity="1.00" stroke-linejoin="round"/>
<path d="M175.13,206.71 C175.22,204.95 176.16,200.90 176.88,199.03 C177.69,197.03 179.56,194.06 181.01,192.47 C182.38,191.03 185.62,188.45 187.15,187.62 C188.70,186.82 192.65,185.61 194.61,185.31 C196.73,185.01 200.21,185.16 202.30,185.64 C204.22,186.11 208.05,187.65 209.53,188.58 C210.99,189.53 214.00,192.38 215.24,193.94 C216.55,195.65 218.16,198.76 218.79,200.82 C219.35,202.74 219.94,206.86 219.88,208.62 C219.79,210.37 218.85,214.43 218.13,216.29 C217.32,218.29 215.45,221.26 214.00,222.85 C212.63,224.30 209.39,226.88 207.86,227.70 C206.30,228.50 202.36,229.71 200.40,230.02 C198.28,230.31 194.80,230.16 192.71,229.69 C190.79,229.22 186.96,227.68 185.48,226.75 C184.02,225.79 181.01,222.95 179.77,221.39 C178.46,219.68 176.85,216.56 176.21,214.50 C175.66,212.58 175.07,208.46 175.13,206.71 Z" fill="none" stroke="rgb(6, 240, 255)" stroke-width="17.00" stroke-opacity="1.00" stroke-linejoin="round"/>
<path d="M328.69,181.78 C327.44,182.49 324.16,183.50 322.49,183.72 C319.20,184.09 312.04,182.00 309.18,180.07 C306.35,178.09 301.19,171.69 299.75,168.05 C298.22,164.02 297.66,157.15 298.55,153.33 C299.02,151.45 300.30,148.69 301.38,147.22 C302.40,145.89 304.91,143.55 306.15,142.82 C307.40,142.11 310.68,141.10 312.34,140.88 C315.64,140.50 322.80,142.60 325.66,144.53 C328.49,146.51 333.65,152.91 335.09,156.54 C336.62,160.57 337.18,167.45 336.29,171.27 C335.82,173.15 334.54,175.91 333.46,177.38 C332.44,178.71 329.93,181.05 328.69,181.78 Z" fill="none" stroke="rgb(6, 240, 255)" stroke-width="17.00" stroke-opacity="1.00" stroke-linejoin="round"/>
<path d="M90.07,71.01 L169.78,118.76" fill="none" stroke="rgb(6, 240, 255)" stroke-width="8.00" stroke-opacity="1.00" stroke-linejoin="round"/>
<path d="M97.90,73.97 L96.77,73.63" fill="none" stroke="rgb(6, 240, 255)" stroke-width="8.00" stroke-opacity="1.00" stroke-linejoin="round"/>
<path d="M95.12,72.83 L178.62,195.04" fill="none" stroke="rgb(6, 240, 255)" stroke-width="8.00" stroke-opacity="1.00" stroke-linejoin="round"/>
<path d="M85.65,140.02 L176.85,121.60" fill="none" stroke="rgb(6, 240, 255)" stroke-width="8.00" stroke-opacity="1.00" stroke-linejoin="round"/>
<path d="M88.68,140.82 L88.68,140.47" fill="none" stroke="rgb(6, 240, 255)" stroke-width="8.00" stroke-opacity="1.00" stroke-linejoin="round"/>
<path d="M91.84,144.57 L182.66,195.84" fill="none" stroke="rgb(6, 240, 255)" stroke-width="8.00" stroke-opacity="1.00" stroke-linejoin="round"/>
<path d="M80.47,236.31 L163.46,125.36" fill="none" stroke="rgb(6, 240, 255)" stroke-width="8.00" stroke-opacity="1.00" stroke-linejoin="round"/>
<path d="M85.27,227.79 L171.55,200.95" fill="none" stroke="rgb(6, 240, 255)" stroke-width="8.00" stroke-opacity="1.00" stroke-linejoin="round"/>
<path d="M215.76,126.61 L295.71,156.50" fill="none" stroke="rgb(6, 240, 255)" stroke-width="8.00" stroke-opacity="1.00" stroke-linejoin="round"/>
<path d="M221.95,193.22 L297.61,165.60" fill="none" stroke="rgb(6, 240, 255)" stroke-width="8.00" stroke-opacity="1.00" stroke-linejoin="round"/>
<path d="M313.14,160.37 C313.40,160.35 313.58,160.35 313.70,160.37 C315.24,160.68 316.46,162.11 316.95,163.27 C316.95,163.27 313.78,165.25 313.78,165.25 C313.78,165.25 320.60,163.43 320.60,163.43 C320.52,162.01 322.78,161.85 323.25,162.13 C321.70,161.36 319.90,159.76 318.79,157.99 C318.21,157.06 318.25,156.01 318.54,155.00 C319.76,156.47 320.21,157.69 319.76,158.99 C318.81,161.62 316.60,162.49 315.61,162.37 C315.12,161.63 315.10,160.56 315.74,159.48 C317.03,157.39 318.95,157.44 320.01,157.90 C320.57,159.46 320.37,161.59 319.15,162.35 C318.76,162.59 317.89,162.80 316.54,162.98" fill="none" stroke="rgb(6, 240, 255)" stroke-width="30.00" stroke-opacity="0.78" stroke-linejoin="round"/>
<path d="M191.88,113.98 C190.60,114.34 187.53,115.13 187.28,115.59 C186.82,116.41 187.33,117.49 187.10,118.39 C186.76,119.80 184.84,121.91 183.77,122.54 C183.77,122.54 182.47,122.12 182.47,122.12 C182.01,121.16 182.10,120.29 182.95,118.81 C183.79,117.33 184.50,116.70 185.53,116.35 C185.53,116.35 186.47,116.85 186.47,116.85 C186.81,117.92 186.85,119.26 186.35,119.99 C185.90,120.62 183.88,121.64 183.12,121.61 C182.19,121.56 181.20,120.70 180.62,119.74 C180.62,119.74 182.09,118.97 182.09,118.97 C184.83,121.10 185.29,122.14 185.39,123.90 C183.94,122.76 183.02,121.43 182.88,119.73 C182.74,117.77 183.53,114.70 184.43,114.11 C184.73,113.93 185.36,113.85 186.30,113.88 C187.56,115.06 188.46,116.43 188.55,117.66 C188.63,118.70 188.16,119.94 187.60,120.66 C188.00,118.69 188.89,117.25 190.18,117.00 C191.20,116.82 192.87,117.77 193.11,118.64 C193.41,119.95 190.22,124.43 189.00,124.63 C189.00,124.63 193.59,123.65 193.59,123.65 C194.17,124.16 193.90,125.90 192.85,127.30 C192.62,127.61 192.25,127.87 191.76,128.08" fill="none" stroke="rgb(6, 240, 255)" stroke-width="30.00" stroke-opacity="0.78" stroke-linejoin="round"/>
<path d="M193.90,203.57 C193.90,203.57 193.50,202.56 193.50,202.56 C193.50,202.56 196.23,201.86 196.23,201.86 C196.23,201.86 197.24,203.85 197.24,203.85 C194.13,207.51 191.96,207.86 190.57,207.75 C190.57,207.75 189.94,206.68 189.94,206.68 C189.94,206.68 194.58,203.55 194.58,203.55 C194.64,204.85 190.78,205.77 190.67,205.46 C193.41,203.45 195.32,203.53 196.62,203.84 C197.04,204.81 196.80,206.13 195.70,207.29 C194.63,208.41 192.82,209.39 191.45,209.78 C191.91,208.02 192.68,206.88 194.15,206.16 C196.65,204.97 199.41,205.71 200.57,206.17 C199.77,208.50 198.92,209.59 197.31,210.02 C196.70,210.19 196.09,210.35 195.48,210.52 C195.87,209.62 196.60,209.04 198.40,208.39 C200.20,207.73 201.61,207.77 203.66,208.36 C201.34,210.31 199.05,210.39 197.40,210.20 C197.40,210.20 196.78,208.91 196.78,208.91 C196.78,208.91 201.34,204.68 201.34,204.68 C199.69,206.87 198.53,208.02 197.01,208.79 C195.50,209.55 194.53,209.76 193.33,209.69" fill="none" stroke="rgb(6, 240, 255)" stroke-width="30.00" stroke-opacity="0.78" stroke-linejoin="round"/>
<path d="M66.20,59.19 C66.20,59.19 67.33,59.19 67.33,59.19 C67.33,59.19 62.04,59.86 62.04,59.86 C62.04,59.86 61.46,58.89 61.46,58.89 C62.00,58.19 62.93,57.71 63.79,57.98 C64.62,58.26 66.65,60.30 67.37,61.55 C68.01,62.72 68.33,64.96 67.97,65.74 C67.45,66.70 65.67,67.17 64.51,66.59 C63.64,66.12 61.95,63.99 61.71,63.08 C61.41,61.83 61.70,60.15 62.26,58.91 C62.26,58.91 63.41,58.91 63.41,58.91 C64.24,60.05 64.81,61.52 64.64,62.73 C64.46,63.94 62.94,65.84 61.89,66.17 C60.93,66.43 59.33,65.37 58.87,64.21 C58.38,62.79 59.59,59.51 61.06,59.18 C62.39,58.89 63.49,59.34 64.36,60.52 C64.68,60.96 64.81,61.87 64.75,63.26 C64.75,63.26 63.09,64.58 63.09,64.58 C63.09,64.58 65.37,63.27 65.37,63.27 C66.39,65.02 65.36,68.02 65.08,68.71" fill="none" stroke="rgb(6, 240, 255)" stroke-width="30.00" stroke-opacity="0.78" stroke-linejoin="round"/>
<path d="M69.36,157.53 C69.36,157.53 70.29,158.63 70.29,158.63 C69.75,158.77 66.59,155.96 65.17,153.93 C64.32,152.70 64.18,151.86 64.49,150.96 C65.47,150.50 66.64,150.53 67.44,151.33 C68.13,152.04 69.36,154.77 69.46,155.80 C69.52,156.64 68.69,158.55 68.06,159.06 C67.10,159.76 64.52,159.81 63.52,158.99 C62.52,158.12 61.96,155.16 62.50,154.04 C63.05,152.97 64.50,152.40 65.80,152.40 C66.76,153.43 67.33,155.16 66.91,156.67 C66.57,157.81 64.73,159.81 63.84,160.05 C62.61,160.33 61.44,159.53 60.75,158.25 C61.32,156.36 62.77,154.21 64.58,153.06 C66.14,152.10 68.74,152.17 70.20,153.10 C71.57,154.05 72.39,156.02 72.00,157.42 C71.55,158.91 70.42,159.93 69.39,160.11 C68.80,159.14 68.56,157.70 69.12,156.55 C69.68,155.44 72.46,152.80 73.77,152.10 C75.03,151.45 76.40,151.59 77.19,152.10 C77.58,154.05 76.15,155.41 73.89,157.03 C73.89,157.03 75.31,156.36 75.31,156.36 C75.56,158.75 75.45,160.19 74.74,161.66 C74.04,163.13 73.38,164.16 72.28,165.61" fill="none" stroke="rgb(6, 240, 255)" stroke-width="30.00" stroke-opacity="0.78" stroke-linejoin="round"/>
<path d="M66.58,247.22 C66.95,246.33 68.39,244.52 69.55,243.86 C70.77,243.20 72.86,243.58 73.58,244.53 C74.27,245.55 74.82,248.53 74.57,250.30 C74.22,252.40 72.43,255.58 71.20,256.15 C70.09,256.62 67.82,255.75 66.91,254.71 C66.19,253.81 65.69,251.68 65.83,250.31 C66.01,248.96 66.98,247.19 67.84,246.58 C69.46,245.52 70.65,246.50 71.09,247.22 C71.56,248.89 67.73,249.23 67.33,248.68 C67.33,248.68 67.71,247.27 67.71,247.27 C67.71,247.27 69.19,247.57 69.19,247.57 C69.68,250.17 69.02,252.83 67.28,254.41 C66.94,254.72 66.47,254.92 65.87,255.03 C64.19,254.54 65.81,250.19 67.21,248.36 C67.21,248.36 67.35,249.48 67.35,249.48 C65.72,250.51 64.07,250.83 63.37,249.82 C63.15,249.52 62.88,248.77 62.54,247.56" fill="none" stroke="rgb(6, 240, 255)" stroke-width="30.00" stroke-opacity="0.78" stroke-linejoin="round"/>
</g>
</svg>
